<svg height="368pt" viewBox="0 0 368 368" width="368pt" xmlns="http://www.w3.org/2000/svg"><path d="m184 0c-101.457031 0-184 82.542969-184 184s82.542969 184 184 184 184-82.542969 184-184-82.542969-184-184-184zm0 352c-92.640625 0-168-75.359375-168-168s75.359375-168 168-168 168 75.359375 168 168-75.359375 168-168 168zm0 0"/><path d="m272 152c0-22.054688-17.945312-40-40-40h-8v-24c0-4.414062-3.585938-8-8-8s-8 3.585938-8 8v24h-48v-24c0-4.414062-3.585938-8-8-8s-8 3.585938-8 8v24h-40c-4.414062 0-8 3.585938-8 8s3.585938 8 8 8h24v112h-24c-4.414062 0-8 3.585938-8 8s3.585938 8 8 8h40v24c0 4.414062 3.585938 8 8 8s8-3.585938 8-8v-24h48v24c0 4.414062 3.585938 8 8 8s8-3.585938 8-8v-24h8c22.054688 0 40-17.945312 40-40 0-13.128906-6.449219-24.703125-16.246094-32 9.796875-7.296875 16.246094-18.871094 16.246094-32zm-16 64c0 13.230469-10.769531 24-24 24h-88v-48h88c13.230469 0 24 10.769531 24 24zm-24-40h-88v-48h88c13.230469 0 24 10.769531 24 24s-10.769531 24-24 24zm0 0"/></svg>