<?xml version="1.0"?>
<svg xmlns="http://www.w3.org/2000/svg" id="Layer_1" data-name="Layer 1" viewBox="0 0 512 512" width="512" height="512"><title>Bitcoin</title><path d="M322,216a48.055,48.055,0,0,0-48-48H262V150a8,8,0,0,0-16,0v18H232V150a8,8,0,0,0-16,0v18H198a8,8,0,0,0,0,16h12V328H198a8,8,0,0,0,0,16h18v18a8,8,0,0,0,16,0V344h14v18a8,8,0,0,0,16,0V344h12a47.983,47.983,0,0,0,26.493-88A47.989,47.989,0,0,0,322,216Zm-16,80a32.036,32.036,0,0,1-32,32H226V264h48A32.036,32.036,0,0,1,306,296Zm-32-48H226V184h48a32,32,0,0,1,0,64Z"/><path d="M256,94.25C166.811,94.25,94.25,166.811,94.25,256S166.811,417.75,256,417.75,417.75,345.189,417.75,256,345.189,94.25,256,94.25Zm0,307.5c-80.367,0-145.75-65.383-145.75-145.75S175.633,110.25,256,110.25,401.75,175.633,401.75,256,336.367,401.75,256,401.75Z"/><path d="M256,43.871C139.032,43.871,43.871,139.032,43.871,256S139.032,468.129,256,468.129,468.129,372.968,468.129,256,372.968,43.871,256,43.871Zm0,408.258C147.854,452.129,59.871,364.146,59.871,256S147.854,59.871,256,59.871,452.129,147.854,452.129,256,364.146,452.129,256,452.129Z"/></svg>
